<svg xmlns="http://www.w3.org/2000/svg" viewBox="0 0 64 64">
  <!-- Hand pointer -->
  <path d="M40 35 C40 34, 40 33, 40 32 C40 28, 38 25, 34 25 C32 25, 30 26, 29 28
           C29 27, 28 25, 26 25 C23 25, 22 27, 22 30 L22 32
           C22 29, 21 27, 18 27 C15 27, 14 29, 14 32 L14 40
           C14 48, 20 54, 28 54 C36 54, 40 46, 40 40 Z"
        fill="#e0e0e0" stroke="#ffffff" stroke-width="1.5"/>
  
  <!-- Thumb -->
  <path d="M40 35 C44 34, 46 31, 46 27 C46 24, 44 22, 41 22 C38 22, 37 24, 37 27 L37 32"
        fill="#e0e0e0" stroke="#ffffff" stroke-width="1.5"/>
  
  <!-- Knuckles -->
  <circle cx="29" cy="32" r="1.5" fill="#cccccc"/>
  <circle cx="22" cy="34" r="1.5" fill="#cccccc"/>
  <circle cx="14" cy="36" r="1.5" fill="#cccccc"/>
  
  <!-- Motion lines -->
  <path d="M44 15 L40 22 M47 17 L43 23 M50 20 L46 25" 
        stroke="#ffffff" stroke-width="1.5" stroke-linecap="round" opacity="0.7"/>
</svg>